<?xml version="1.0" encoding="UTF-8" standalone="no"?>
<svg
   width="256px"
   height="256px"
   viewBox="0 0 256 256"
   version="1.1"
   preserveAspectRatio="xMidYMid"
   id="svg6"
   sodipodi:docname="ivon-2.svg"
   inkscape:version="1.2.1 (9c6d41e, 2022-07-14)"
   xml:space="preserve"
   inkscape:export-filename="../Documents/logo.png"
   inkscape:export-xdpi="192"
   inkscape:export-ydpi="192"
   xmlns:inkscape="http://www.inkscape.org/namespaces/inkscape"
   xmlns:sodipodi="http://sodipodi.sourceforge.net/DTD/sodipodi-0.dtd"
   xmlns="http://www.w3.org/2000/svg"
   xmlns:svg="http://www.w3.org/2000/svg"><defs
     id="defs10"><linearGradient
       id="linearGradient3582"
       inkscape:swatch="solid"><stop
         style="stop-color:#ffffff;stop-opacity:1;"
         offset="0"
         id="stop3580" /></linearGradient></defs><sodipodi:namedview
     id="namedview8"
     pagecolor="#ffffff"
     bordercolor="#999999"
     borderopacity="1"
     inkscape:showpageshadow="0"
     inkscape:pageopacity="0"
     inkscape:pagecheckerboard="0"
     inkscape:deskcolor="#d1d1d1"
     showgrid="false"
     inkscape:zoom="1.9820313"
     inkscape:cx="40.362632"
     inkscape:cy="135.71935"
     inkscape:window-width="1440"
     inkscape:window-height="847"
     inkscape:window-x="373"
     inkscape:window-y="1465"
     inkscape:window-maximized="1"
     inkscape:current-layer="g4" /><g
     id="g4"><g
       id="g318"
       transform="translate(16.911885)"><path
         d="M 97.953384,0 C 92.847864,19.318152 75.634014,36.480258 57.609486,54.504783 30.650317,81.532947 0,112.11427 0,158.04662 0.069004,212.06846 43.810808,255.86201 97.832634,256 c 54.125316,0 98.022366,-43.8453 98.074116,-97.95338 0,-45.93235 -30.56407,-76.496424 -57.60949,-103.541837 v 0 l -2.41542,-2.416189 C 118.754,34.940506 102.81379,18.469636 97.953384,0 Z"
         fill="#009dde"
         id="path2"
         sodipodi:nodetypes="cccccsccc"
         style="stroke-width:1.45236" /><g
         id="g306"
         transform="translate(-6,-2)"><g
           id="g528"
           transform="matrix(0.07990315,0,0,0.07990315,52.703925,121.28437)"
           style="fill:#009dde;fill-opacity:1;stroke:#ffffff;stroke-width:112.636;stroke-linecap:round;stroke-linejoin:miter;stroke-dasharray:none;stroke-dashoffset:0;stroke-opacity:1;paint-order:normal"><g
             id="ignore"
             style="fill:#009dde;fill-opacity:1;stroke:#ffffff;stroke-width:112.636;stroke-linecap:round;stroke-linejoin:miter;stroke-dasharray:none;stroke-dashoffset:0;stroke-opacity:1;paint-order:normal" /><g
             id="g585"
             transform="matrix(4.4026083,0,0,4.4026083,-114.39119,-730.98542)"
             style="fill:#009dde;fill-opacity:1;stroke:#ffffff;stroke-width:25.584;stroke-linecap:round;stroke-linejoin:miter;stroke-dasharray:none;stroke-dashoffset:0;stroke-opacity:1;paint-order:normal"><g
               id="ignore-7"
               style="fill:#009dde;fill-opacity:1;stroke:#ffffff;stroke-width:25.584;stroke-linecap:round;stroke-linejoin:miter;stroke-dasharray:none;stroke-dashoffset:0;stroke-opacity:1;paint-order:normal" /><path
               fill="#000000"
               d="M 496,192 H 16 c -8.832,0 -16,7.168 -16,16 l 16,256 c 0,8.848 7.168,16 16,16 h 448 c 8.848,0 16,-7.152 16,-16 l 16,-256 c 0,-8.832 -7.152,-16 -16,-16 z m 0,-96 H 326.69948 C 319.59348,75.265691 285.64486,32.414469 272,32 H 80 C 71.168,32 64,39.168 64,48 V 96 H 16 C 7.168,96 0,103.168 0,112 v 32 c 0,8.832 7.168,16 16,16 h 480 c 8.848,0 16,-7.168 16,-16 v -32 c 0,-8.832 -7.152,-16 -16,-16 z"
               id="path1562"
               sodipodi:nodetypes="ssccssccssccsscssssssss"
               style="fill:#009dde;fill-opacity:1;stroke:#ffffff;stroke-width:25.584;stroke-linecap:round;stroke-linejoin:miter;stroke-dasharray:none;stroke-dashoffset:0;stroke-opacity:1;paint-order:normal" /></g></g><g
           id="g6174"
           transform="matrix(0.07943145,0,0,0.07943145,92.988962,139.93896)"
           style="fill:#ffffff;fill-opacity:1;stroke:#ffffff;stroke-width:39.9748;stroke-linecap:round;stroke-linejoin:bevel;stroke-dasharray:none;stroke-opacity:1"><g
             id="ignore-71"
             style="fill:#ffffff;fill-opacity:1;stroke:#ffffff;stroke-width:39.9748;stroke-linecap:round;stroke-linejoin:bevel;stroke-dasharray:none;stroke-opacity:1" /><path
             fill="#000000"
             d="m 907.328,43.328 c 3.68,-3.68 5.344,-8.928 4.448,-14.048 -0.896,-5.12 -4.224,-9.504 -8.96,-11.712 C 829.504,-16.992 742.496,-1.824 685.28,55.68 630.944,110.368 611.968,196.256 637.312,268.064 L 268.064,637.312 C 248,630.144 226.56,626.56 204.192,626.56 c -54.848,0 -108.032,21.824 -145.888,59.904 -57.024,57.344 -73.088,142.08 -40.992,215.904 2.112,4.864 6.496,8.384 11.712,9.344 5.248,0.992 10.592,-0.672 14.304,-4.448 L 155.04,794.976 c 7.36,-7.424 19.232,-8.416 25.376,-2.176 l 48.224,50.464 c 7.008,7.072 6.688,17.984 -0.704,25.44 l -111.296,112 c -3.68,3.68 -5.312,8.928 -4.416,14.048 0.896,5.12 4.224,9.472 8.928,11.68 26.528,12.512 54.432,18.816 82.912,18.816 50.304,0 98.08,-20.224 134.624,-56.96 C 393.024,913.632 412,827.744 386.624,755.936 l 369.248,-369.28 c 20.096,7.168 41.536,10.752 63.904,10.752 54.848,0 108.032,-21.824 145.888,-59.904 57.024,-57.344 73.088,-142.08 40.992,-215.904 -2.112,-4.864 -6.496,-8.384 -11.712,-9.344 -5.152,-0.896 -10.56,0.672 -14.304,4.448 L 868.928,228.992 c -6.88,6.912 -18.56,6.848 -25.632,-0.32 l -47.968,-47.968 c -7.232,-7.264 -7.2,-18.176 -0.032,-25.408 z m -134.656,160 47.968,47.968 c 19.168,19.264 52,19.36 70.976,0.288 l 93.76,-94.208 c 15.008,55.712 -0.512,115.488 -42.368,157.632 -31.904,32.096 -76.768,50.464 -123.2,50.464 -21.856,0 -42.56,-4.096 -61.536,-12.16 -6.016,-2.592 -12.96,-1.184 -17.568,3.392 l -384,384 c -4.608,4.608 -5.952,11.52 -3.424,17.504 25.696,61.12 10.048,140 -37.216,187.552 -42.272,42.496 -103.808,57.632 -159.52,40.256 l 94.112,-94.72 c 19.872,-20 20.192,-51.008 0.928,-70.336 l -48.192,-50.464 c -18.592,-18.72 -51.648,-17.568 -70.976,1.984 l -93.76,94.208 C 23.648,810.976 39.168,751.2 81.024,709.056 c 31.904,-32.096 76.768,-50.464 123.2,-50.464 21.856,0 42.56,4.096 61.536,12.16 5.984,2.624 12.96,1.184 17.568,-3.392 l 384,-384 c 4.608,-4.608 5.952,-11.52 3.424,-17.504 -25.696,-61.12 -10.048,-140.032 37.216,-187.584 42.24,-42.496 103.744,-57.536 159.424,-40.256 l -94.72,94.752 c -19.712,19.744 -19.712,50.72 0,70.56 z M 934.72,980.704 c -7.072,7.104 -19.328,7.104 -26.464,-0.064 l -320.96,-320 c -6.24,-6.176 -16.384,-6.208 -22.624,0.064 -6.24,6.24 -6.208,16.384 0.032,22.624 l 320.928,319.936 c 9.6,9.632 22.336,14.944 35.904,14.944 v 0 c 13.568,0 26.304,-5.312 36.096,-15.168 l 45.728,-47.776 c 19.68,-19.776 19.68,-50.784 -0.032,-70.592 l -320,-320 c -6.24,-6.24 -16.384,-6.24 -22.624,0 -6.24,6.24 -6.24,16.384 0,22.624 l 319.968,319.968 c 7.328,7.36 7.328,18.048 -0.224,25.664 z m -747.392,-880.032 -96,-96 c -6.24,-6.24 -16.384,-6.24 -22.624,0 l -64,64 c -6.24,6.24 -6.24,16.384 0,22.624 l 96,96 c 3.104,3.136 7.2,4.704 11.296,4.704 4.096,0 8.192,-1.568 11.328,-4.672 L 144,166.624 388.672,411.296 c 3.136,3.136 7.232,4.704 11.328,4.704 4.096,0 8.192,-1.568 11.328,-4.672 6.24,-6.24 6.24,-16.384 0,-22.624 L 166.624,144 187.296,123.328 c 6.272,-6.272 6.272,-16.384 0.032,-22.656 z"
             id="path6164"
             style="fill:#ffffff;fill-opacity:1;stroke:#ffffff;stroke-width:39.9748;stroke-linecap:round;stroke-linejoin:bevel;stroke-dasharray:none;stroke-opacity:1"
             sodipodi:nodetypes="csccccscccccccccscscccsccccccccccccccsccscccccccccsccscccccccccccsscccsssccccsssscsccsscscsc" /></g></g></g></g></svg>
