<?xml version="1.0" encoding="UTF-8" standalone="no"?>
<svg
   width="256px"
   height="256px"
   viewBox="0 0 256 256"
   version="1.1"
   preserveAspectRatio="xMidYMid"
   id="svg6"
   sodipodi:docname="ivon-2zz.svg"
   inkscape:version="1.2.1 (9c6d41e, 2022-07-14)"
   xml:space="preserve"
   inkscape:export-filename="lxxogo.png"
   inkscape:export-xdpi="192"
   inkscape:export-ydpi="192"
   xmlns:inkscape="http://www.inkscape.org/namespaces/inkscape"
   xmlns:sodipodi="http://sodipodi.sourceforge.net/DTD/sodipodi-0.dtd"
   xmlns="http://www.w3.org/2000/svg"
   xmlns:svg="http://www.w3.org/2000/svg"><defs
     id="defs10"><inkscape:path-effect
       effect="powerstroke"
       id="path-effect6853"
       is_visible="true"
       lpeversion="1"
       offset_points="8,2.7605"
       not_jump="false"
       sort_points="true"
       interpolator_type="CentripetalCatmullRom"
       interpolator_beta="0.2"
       start_linecap_type="zerowidth"
       linejoin_type="round"
       miter_limit="4"
       scale_width="1"
       end_linecap_type="zerowidth" /><inkscape:path-effect
       effect="powerstroke"
       id="path-effect6831"
       is_visible="true"
       lpeversion="1"
       offset_points="8.5,2.7605"
       not_jump="false"
       sort_points="true"
       interpolator_type="CentripetalCatmullRom"
       interpolator_beta="0.19526627"
       start_linecap_type="zerowidth"
       linejoin_type="round"
       miter_limit="4.1"
       scale_width="1"
       end_linecap_type="zerowidth" /><inkscape:path-effect
       effect="powerstroke"
       id="path-effect6759"
       is_visible="true"
       lpeversion="1"
       offset_points="8,2.7605"
       not_jump="true"
       sort_points="true"
       interpolator_type="CentripetalCatmullRom"
       interpolator_beta="0.42011834"
       start_linecap_type="zerowidth"
       linejoin_type="spiro"
       miter_limit="2.2"
       scale_width="0.8"
       end_linecap_type="butt" /><linearGradient
       id="linearGradient3582"
       inkscape:swatch="solid"><stop
         style="stop-color:#ffffff;stop-opacity:1;"
         offset="0"
         id="stop3580" /></linearGradient><inkscape:path-effect
       effect="fill_between_many"
       method="bsplinespiro"
       linkedpaths="#path6746,0,1"
       id="path-effect6761" /><inkscape:path-effect
       effect="fill_between_many"
       method="bsplinespiro"
       linkedpaths="#path6829,0,1"
       id="path-effect6833" /><inkscape:path-effect
       effect="fill_between_many"
       method="bsplinespiro"
       linkedpaths="#path6746,0,1"
       id="path-effect6855" /></defs><sodipodi:namedview
     id="namedview8"
     pagecolor="#ffffff"
     bordercolor="#999999"
     borderopacity="1"
     inkscape:showpageshadow="0"
     inkscape:pageopacity="0"
     inkscape:pagecheckerboard="0"
     inkscape:deskcolor="#d1d1d1"
     showgrid="false"
     inkscape:zoom="2.8030155"
     inkscape:cx="53.513795"
     inkscape:cy="124.86552"
     inkscape:window-width="1440"
     inkscape:window-height="847"
     inkscape:window-x="373"
     inkscape:window-y="1465"
     inkscape:window-maximized="1"
     inkscape:current-layer="svg6" /><path
     id="path2"
     style="fill:#009dde;fill-opacity:1;stroke-width:1.45236"
     d="M 114.86523 0 C 109.75973 19.318114 92.545976 36.479417 74.521484 54.503906 C 63.564753 65.48868 48.529697 80.588703 38.597656 93.601562 C 38.974102 93.829655 39.335021 94.091331 39.660156 94.417969 L 80.126953 135.07031 C 82.274811 137.2281 82.26716 140.69589 80.109375 142.84375 L 79.033203 143.91602 C 76.875418 146.06387 73.407624 146.05427 71.259766 143.89648 L 31.986328 104.44141 C 24.911278 119.43427 16.912109 142.11602 16.912109 158.04688 C 16.927999 170.4882 19.284663 182.37424 23.525391 193.32227 C 24.747938 188.97169 27.011188 184.88269 30.375 181.5 C 35.603741 176.24033 42.949681 173.22656 50.525391 173.22656 C 53.6149 173.22656 56.57638 173.72087 59.347656 174.71094 L 110.34961 123.70898 C 106.84904 113.79073 109.46962 101.9286 116.97461 94.375 C 121.91382 89.410901 128.46086 86.730437 135.14844 86.583984 C 139.16096 86.496114 143.22425 87.321269 147.02148 89.111328 C 147.67562 89.416302 148.13602 90.02133 148.25977 90.728516 C 148.38353 91.435699 148.15282 92.159679 147.64453 92.667969 L 132.17188 108.13281 C 131.1814 109.13171 131.17678 110.63926 132.17578 111.64258 L 138.80078 118.26953 C 139.77758 119.25959 141.39152 119.26717 142.3418 118.3125 L 157.77148 102.80273 C 158.28861 102.28116 159.03447 102.06569 159.74609 102.18945 C 160.46652 102.32205 161.07352 102.80865 161.36523 103.48047 C 165.79841 113.67718 163.5794 125.38033 155.70312 133.30078 C 150.47439 138.56048 143.12846 141.57422 135.55273 141.57422 C 132.46325 141.57422 129.5003 141.0799 126.72461 140.08984 L 75.724609 191.0957 C 79.22959 201.01396 76.608504 212.8766 69.103516 220.42578 C 64.055991 225.49984 57.455897 228.29297 50.507812 228.29297 C 49.096719 228.29297 47.701791 228.14124 46.316406 227.91797 C 63.954286 245.22444 88.091383 255.93192 114.74414 256 C 168.86935 256 212.76662 212.15484 212.81836 158.04688 C 212.81836 112.11461 182.25436 81.549265 155.20898 54.503906 L 152.79297 52.087891 C 135.66517 34.939837 119.72563 18.4696 114.86523 0 z M 115.14258 161.27148 C 115.74048 161.27148 116.37741 161.37864 117.00977 161.63477 C 117.587 161.86856 118.15593 162.22625 118.65625 162.72656 C 132.60567 176.67598 147.43323 191.50158 162.86133 206.92969 C 163.79001 207.86301 164.5077 208.94588 164.99023 210.12109 C 165.46441 211.27593 165.70668 212.50847 165.70703 213.75195 C 165.70737 214.97827 165.47219 216.21242 164.99219 217.38281 C 164.52059 218.53272 163.8154 219.61219 162.88477 220.55273 L 156.58594 227.13477 C 156.57434 227.14727 156.56268 227.15958 156.55078 227.17188 C 154.68359 229.05123 152.22164 230.08008 149.60742 230.08008 C 146.95374 230.08008 144.50419 229.02389 142.69922 227.21289 C 127.47608 212.03673 112.62075 197.22716 98.367188 183.01758 C 97.880544 182.53075 97.518429 181.96834 97.277344 181.375 C 97.030652 180.76786 96.913256 180.13332 96.912109 179.50977 C 96.911009 178.8853 97.025549 178.24824 97.271484 177.63867 C 97.511868 177.04287 98.359375 175.99414 98.359375 175.99414 L 111.62891 162.72656 C 111.62891 162.72656 112.72718 161.8568 113.27539 161.63477 C 113.96417 161.35579 114.6145 161.27148 115.14258 161.27148 z " /><g
     id="ignore-71"
     style="fill:#ffffff;fill-opacity:1;stroke:#ffffff;stroke-width:39.9748;stroke-linecap:round;stroke-linejoin:bevel;stroke-dasharray:none;stroke-opacity:1"
     transform="matrix(0.13812227,0,0,0.13812227,26.358912,85.674835)" /><path
     inkscape:original-d="M 0,0"
     inkscape:path-effect="#path-effect6833"
     d="M 0,0"
     id="path6835"
     style="fill:#ffffff"
     class="UnoptimicedTransforms" /><path
     inkscape:original-d="M 0,0"
     inkscape:path-effect="#path-effect6855"
     d="M 0,0"
     id="path6857"
     style="fill:#ffffff"
     class="UnoptimicedTransforms" /></svg>
